<svg width="20" height="20" viewBox="0 0 20 20" fill="none" xmlns="http://www.w3.org/2000/svg">
<g opacity="0.6">
<path d="M11.666 13.3333C11.666 14.8083 11.0243 16.1416 9.99935 17.05C9.11602 17.85 7.94935 18.3333 6.66602 18.3333C3.90768 18.3333 1.66602 16.0916 1.66602 13.3333C1.66602 11.0333 3.23268 9.0833 5.34935 8.5083C5.92435 9.9583 7.15768 11.075 8.68268 11.4916C9.09935 11.6083 9.54102 11.6666 9.99935 11.6666C10.4577 11.6666 10.8993 11.6083 11.316 11.4916C11.541 12.0583 11.666 12.6833 11.666 13.3333Z" fill="#252525"/>
<path d="M11.666 13.3333C11.666 14.8083 11.0243 16.1416 9.99935 17.05C9.11602 17.85 7.94935 18.3333 6.66602 18.3333C3.90768 18.3333 1.66602 16.0916 1.66602 13.3333C1.66602 11.0333 3.23268 9.0833 5.34935 8.5083C5.92435 9.9583 7.15768 11.075 8.68268 11.4916C9.09935 11.6083 9.54102 11.6666 9.99935 11.6666C10.4577 11.6666 10.8993 11.6083 11.316 11.4916C11.541 12.0583 11.666 12.6833 11.666 13.3333Z" fill="#133E87"/>
</g>
<path d="M15 6.66663C15 7.31663 14.875 7.94163 14.65 8.50829C14.075 9.95829 12.8417 11.075 11.3167 11.4916C10.9 11.6083 10.4583 11.6666 10 11.6666C9.54167 11.6666 9.1 11.6083 8.68333 11.4916C7.15833 11.075 5.925 9.95829 5.35 8.50829C5.125 7.94163 5 7.31663 5 6.66663C5 3.90829 7.24167 1.66663 10 1.66663C12.7583 1.66663 15 3.90829 15 6.66663Z" fill="#252525"/>
<path d="M15 6.66663C15 7.31663 14.875 7.94163 14.65 8.50829C14.075 9.95829 12.8417 11.075 11.3167 11.4916C10.9 11.6083 10.4583 11.6666 10 11.6666C9.54167 11.6666 9.1 11.6083 8.68333 11.4916C7.15833 11.075 5.925 9.95829 5.35 8.50829C5.125 7.94163 5 7.31663 5 6.66663C5 3.90829 7.24167 1.66663 10 1.66663C12.7583 1.66663 15 3.90829 15 6.66663Z" fill="#133E87"/>
<g opacity="0.4">
<path d="M18.3333 13.3333C18.3333 16.0916 16.0917 18.3333 13.3333 18.3333C12.05 18.3333 10.8833 17.85 10 17.05C11.025 16.1416 11.6667 14.8083 11.6667 13.3333C11.6667 12.6833 11.5417 12.0583 11.3167 11.4916C12.8417 11.075 14.075 9.9583 14.65 8.5083C16.7667 9.0833 18.3333 11.0333 18.3333 13.3333Z" fill="#252525"/>
<path d="M18.3333 13.3333C18.3333 16.0916 16.0917 18.3333 13.3333 18.3333C12.05 18.3333 10.8833 17.85 10 17.05C11.025 16.1416 11.6667 14.8083 11.6667 13.3333C11.6667 12.6833 11.5417 12.0583 11.3167 11.4916C12.8417 11.075 14.075 9.9583 14.65 8.5083C16.7667 9.0833 18.3333 11.0333 18.3333 13.3333Z" fill="#133E87"/>
</g>
</svg>
