<svg width="20" height="20" viewBox="0 0 20 20" fill="none" xmlns="http://www.w3.org/2000/svg">
<path opacity="0.6" d="M11.668 13.3328C11.668 14.8078 11.0263 16.1411 10.0013 17.0495C9.11797 17.8495 7.9513 18.3328 6.66797 18.3328C3.90964 18.3328 1.66797 16.0911 1.66797 13.3328C1.66797 11.0328 3.23464 9.08281 5.3513 8.50781C5.9263 9.95781 7.15964 11.0745 8.68464 11.4911C9.1013 11.6078 9.54297 11.6661 10.0013 11.6661C10.4596 11.6661 10.9013 11.6078 11.318 11.4911C11.543 12.0578 11.668 12.6828 11.668 13.3328Z" fill="white"/>
<path d="M15 6.67188C15 7.32187 14.875 7.94688 14.65 8.51354C14.075 9.96354 12.8417 11.0802 11.3167 11.4969C10.9 11.6135 10.4583 11.6719 10 11.6719C9.54167 11.6719 9.1 11.6135 8.68333 11.4969C7.15833 11.0802 5.925 9.96354 5.35 8.51354C5.125 7.94688 5 7.32187 5 6.67188C5 3.91354 7.24167 1.67188 10 1.67188C12.7583 1.67188 15 3.91354 15 6.67188Z" fill="white"/>
<path opacity="0.4" d="M18.3333 13.3328C18.3333 16.0911 16.0917 18.3328 13.3333 18.3328C12.05 18.3328 10.8833 17.8495 10 17.0495C11.025 16.1411 11.6667 14.8078 11.6667 13.3328C11.6667 12.6828 11.5417 12.0578 11.3167 11.4911C12.8417 11.0745 14.075 9.95781 14.65 8.50781C16.7667 9.08281 18.3333 11.0328 18.3333 13.3328Z" fill="white"/>
</svg>
