<svg width="20" height="20" viewBox="0 0 20 20" fill="none" xmlns="http://www.w3.org/2000/svg">
<path d="M11.6667 7.57031L19.0083 9.02865C19.6 9.15365 20 9.65365 20 10.2453V18.7453C20 19.437 19.4417 19.9953 18.75 19.9953H11.25C11.4833 19.9953 11.6667 19.812 11.6667 19.5786V19.162H18.75C18.975 19.162 19.1667 18.9786 19.1667 18.7453V10.2453C19.1667 10.0536 19.0333 9.87865 18.8417 9.83698L11.6667 8.42031V7.57031Z" fill="white"/>
<path d="M16.2497 11.6665C16.483 11.6665 16.6663 11.8499 16.6663 12.0832C16.6663 12.3165 16.483 12.4999 16.2497 12.4999H14.583C14.3497 12.4999 14.1663 12.3165 14.1663 12.0832C14.1663 11.8499 14.3497 11.6665 14.583 11.6665H16.2497ZM16.2497 14.1665C16.483 14.1665 16.6663 14.3499 16.6663 14.5832C16.6663 14.8165 16.483 14.9999 16.2497 14.9999H14.583C14.3497 14.9999 14.1663 14.8165 14.1663 14.5832C14.1663 14.3499 14.3497 14.1665 14.583 14.1665H16.2497ZM16.2497 16.6665C16.483 16.6665 16.6663 16.8499 16.6663 17.0832C16.6663 17.3165 16.483 17.4999 16.2497 17.4999H14.583C14.3497 17.4999 14.1663 17.3165 14.1663 17.0832C14.1663 16.8499 14.3497 16.6665 14.583 16.6665H16.2497ZM11.6663 19.5832C11.6663 19.8165 11.483 19.9999 11.2497 19.9999C11.0163 19.9999 10.833 19.8165 10.833 19.5832V7.91654C10.833 7.79154 10.8913 7.67487 10.983 7.59154C11.083 7.51654 11.208 7.48321 11.333 7.50821L11.6663 7.57487V19.1665V19.5832Z" fill="white"/>
<path d="M10.8333 19.1641V19.5807C10.8333 19.8141 11.0167 19.9974 11.25 19.9974H7.91667C8.15 19.9974 8.33333 19.8141 8.33333 19.5807V19.1641H10.8333ZM8.75 4.16406C8.98333 4.16406 9.16667 4.3474 9.16667 4.58073C9.16667 4.81406 8.98333 4.9974 8.75 4.9974H7.08333C6.85 4.9974 6.66667 4.81406 6.66667 4.58073C6.66667 4.3474 6.85 4.16406 7.08333 4.16406H8.75ZM9.16667 7.08073C9.16667 7.31406 8.98333 7.4974 8.75 7.4974H7.08333C6.85 7.4974 6.66667 7.31406 6.66667 7.08073C6.66667 6.8474 6.85 6.66406 7.08333 6.66406H8.75C8.98333 6.66406 9.16667 6.8474 9.16667 7.08073ZM8.75 9.16406C8.98333 9.16406 9.16667 9.3474 9.16667 9.58073C9.16667 9.81406 8.98333 9.9974 8.75 9.9974H7.08333C6.85 9.9974 6.66667 9.81406 6.66667 9.58073C6.66667 9.3474 6.85 9.16406 7.08333 9.16406H8.75ZM8.75 11.6641C8.98333 11.6641 9.16667 11.8474 9.16667 12.0807C9.16667 12.3141 8.98333 12.4974 8.75 12.4974H7.08333C6.85 12.4974 6.66667 12.3141 6.66667 12.0807C6.66667 11.8474 6.85 11.6641 7.08333 11.6641H8.75ZM5 12.0807C5 12.3141 4.81667 12.4974 4.58333 12.4974H2.91667C2.68333 12.4974 2.5 12.3141 2.5 12.0807C2.5 11.8474 2.68333 11.6641 2.91667 11.6641H4.58333C4.81667 11.6641 5 11.8474 5 12.0807ZM4.58333 4.16406C4.81667 4.16406 5 4.3474 5 4.58073C5 4.81406 4.81667 4.9974 4.58333 4.9974H2.91667C2.68333 4.9974 2.5 4.81406 2.5 4.58073C2.5 4.3474 2.68333 4.16406 2.91667 4.16406H4.58333ZM4.58333 6.66406C4.81667 6.66406 5 6.8474 5 7.08073C5 7.31406 4.81667 7.4974 4.58333 7.4974H2.91667C2.68333 7.4974 2.5 7.31406 2.5 7.08073C2.5 6.8474 2.68333 6.66406 2.91667 6.66406H4.58333ZM4.58333 9.16406C4.81667 9.16406 5 9.3474 5 9.58073C5 9.81406 4.81667 9.9974 4.58333 9.9974H2.91667C2.68333 9.9974 2.5 9.81406 2.5 9.58073C2.5 9.3474 2.68333 9.16406 2.91667 9.16406H4.58333ZM7.5 15.4141C7.5 15.1807 7.30833 14.9974 7.08333 14.9974H4.58333C4.35 14.9974 4.16667 15.1807 4.16667 15.4141V19.1641H3.33333V15.4141C3.33333 14.7224 3.89167 14.1641 4.58333 14.1641H7.08333C7.775 14.1641 8.33333 14.7224 8.33333 15.4141V19.1641H7.5V15.4141Z" fill="white"/>
<path d="M4.16634 19.1641H8.33301V19.5807C8.33301 19.8141 8.14967 19.9974 7.91634 19.9974H3.74967C3.51634 19.9974 3.33301 19.8141 3.33301 19.5807V19.1641H4.16634Z" fill="white"/>
<path d="M1.45833 0.164662L10.6167 1.55633C11.225 1.65633 11.6667 2.17299 11.6667 2.78966V7.57299L11.3333 7.50633C11.2083 7.48133 11.0833 7.51466 10.9833 7.58966C10.8917 7.67299 10.8333 7.78966 10.8333 7.91466V2.78966C10.8333 2.58133 10.6833 2.40633 10.4833 2.37299L1.325 0.989662C1.3 0.981328 1.275 0.981328 1.25 0.981328C1.15 0.981328 1.05833 1.01466 0.983333 1.08133C0.883333 1.16466 0.833333 1.27299 0.833333 1.39799V18.748C0.833333 18.9813 1.025 19.1647 1.25 19.1647H3.33333V19.5813C3.33333 19.8147 3.51667 19.998 3.75 19.998H1.25C0.558333 19.998 0 19.4397 0 18.748V1.39799C0 1.03133 0.158333 0.681328 0.441667 0.447995C0.725 0.206328 1.09167 0.106328 1.45833 0.164662Z" fill="white"/>
</svg>
