<svg width="20" height="20" viewBox="0 0 20 20" fill="none" xmlns="http://www.w3.org/2000/svg">
<path d="M0.395269 6.63751C0.183786 6.27212 0.311129 5.79931 0.676479 5.58778L9.57774 0.448854C9.69954 0.377995 9.85016 0.343659 9.99962 0.343659C10.1502 0.343659 10.2997 0.377995 10.4215 0.448854L19.3228 5.58778C19.6893 5.79931 19.8155 6.27212 19.604 6.63751C19.3936 7.00403 18.9208 7.13024 18.5554 6.91876L9.99962 1.97916L1.44495 6.91876C1.07843 7.13024 0.606753 7.00403 0.395269 6.63751Z" stroke="white" stroke-width="0.5" stroke-miterlimit="10" stroke-linecap="round" stroke-linejoin="round"/>
<path d="M9.38851 19.6571H0.472871C0.374277 19.6571 0.293457 19.5763 0.293457 19.4777V18.4059C0.293457 18.3073 0.374277 18.2265 0.472871 18.2265H19.5277C19.6262 18.2265 19.707 18.3073 19.707 18.4059V19.4777C19.707 19.5763 19.6262 19.6571 19.5277 19.6571H10.7405" stroke="white" stroke-width="0.5" stroke-miterlimit="10" stroke-linecap="round" stroke-linejoin="round"/>
<path d="M10.6917 10.7967H19.5277C19.6262 10.7967 19.707 10.8775 19.707 10.976V12.0479C19.707 12.1465 19.6262 12.2273 19.5277 12.2273H0.47287C0.374277 12.2273 0.293457 12.1465 0.293457 12.0479V10.976C0.293457 10.8775 0.374277 10.7967 0.47287 10.7967H9.38851" stroke="white" stroke-width="0.5" stroke-miterlimit="10" stroke-linecap="round" stroke-linejoin="round"/>
<path d="M1.37939 12.2273H5.59696V13.3312C5.59696 13.4264 5.51833 13.5051 5.42313 13.5051H1.55322C1.45803 13.5051 1.37939 13.4264 1.37939 13.3312V12.2273Z" stroke="white" stroke-width="0.5" stroke-miterlimit="10" stroke-linecap="round" stroke-linejoin="round"/>
<path d="M1.37939 18.2264H5.59696V17.1236C5.59696 17.0273 5.51833 16.9486 5.42313 16.9486H1.55322C1.45803 16.9486 1.37939 17.0273 1.37939 17.1236V18.2264Z" stroke="white" stroke-width="0.5" stroke-miterlimit="10" stroke-linecap="round" stroke-linejoin="round"/>
<path d="M2.19922 16.9487H4.77804V13.505H2.19922V16.9487Z" stroke="white" stroke-width="0.5" stroke-miterlimit="10" stroke-linecap="round" stroke-linejoin="round"/>
<path d="M7.89014 12.2273H12.1088V13.3312C12.1088 13.4264 12.0302 13.5051 11.9339 13.5051H8.0651C7.96877 13.5051 7.89014 13.4264 7.89014 13.3312V12.2273Z" stroke="white" stroke-width="0.5" stroke-miterlimit="10" stroke-linecap="round" stroke-linejoin="round"/>
<path d="M7.89014 18.2264H12.1088V17.1236C12.1087 17.0772 12.0902 17.0328 12.0575 17C12.0247 16.9672 11.9802 16.9487 11.9339 16.9486H8.0651C8.01873 16.9487 7.97428 16.9672 7.9415 17C7.90871 17.0328 7.89024 17.0772 7.89014 17.1236V18.2264Z" stroke="white" stroke-width="0.5" stroke-miterlimit="10" stroke-linecap="round" stroke-linejoin="round"/>
<path d="M8.71094 16.9487H11.2886V13.505H8.71094V16.9487Z" stroke="white" stroke-width="0.5" stroke-miterlimit="10" stroke-linecap="round" stroke-linejoin="round"/>
<path d="M14.4019 12.2273H18.6205V13.3312C18.6205 13.4264 18.5419 13.5051 18.4456 13.5051H14.5768C14.4805 13.5051 14.4019 13.4264 14.4019 13.3312V12.2273Z" stroke="white" stroke-width="0.5" stroke-miterlimit="10" stroke-linecap="round" stroke-linejoin="round"/>
<path d="M14.4019 18.2264H18.6205V17.1236C18.6204 17.0772 18.602 17.0328 18.5692 17C18.5364 16.9672 18.492 16.9487 18.4456 16.9486H14.5768C14.5304 16.9487 14.486 16.9672 14.4532 17C14.4204 17.0328 14.402 17.0772 14.4019 17.1236V18.2264Z" stroke="white" stroke-width="0.5" stroke-miterlimit="10" stroke-linecap="round" stroke-linejoin="round"/>
<path d="M15.2227 16.9487H17.8003V13.505H15.2227V16.9487Z" stroke="white" stroke-width="0.5" stroke-miterlimit="10" stroke-linecap="round" stroke-linejoin="round"/>
<path d="M10.0428 5.58667C10.5588 5.58667 10.9807 5.1648 10.9807 4.64878C10.9807 4.13281 10.5588 3.71089 10.0428 3.71089C9.52576 3.71089 9.10498 4.13281 9.10498 4.64878C9.10498 5.1648 9.52576 5.58667 10.0428 5.58667Z" stroke="white" stroke-width="0.5" stroke-miterlimit="10" stroke-linecap="round" stroke-linejoin="round"/>
<path d="M6.30058 7.5816C6.30058 7.8707 6.06617 8.10512 5.77707 8.10512C5.63367 8.10512 5.11621 8.10742 5.11621 8.10742V7.05809H5.77707C6.06617 7.05809 6.30058 7.29246 6.30058 7.5816Z" stroke="white" stroke-width="0.5" stroke-miterlimit="10" stroke-linecap="round" stroke-linejoin="round"/>
<path d="M6.50488 8.7182C6.50488 9.0564 6.2307 9.33058 5.8925 9.33058C5.72476 9.33058 5.11621 9.33331 5.11621 9.33331V8.10578H5.8925C6.2307 8.10578 6.50488 8.37996 6.50488 8.7182Z" stroke="white" stroke-width="0.5" stroke-miterlimit="10" stroke-linecap="round" stroke-linejoin="round"/>
<path d="M7.60693 9.33331L8.46123 7.09023C8.47869 7.04754 8.53912 7.04746 8.55662 7.09012L9.40318 9.33331" stroke="white" stroke-width="0.5" stroke-miterlimit="10" stroke-linecap="round" stroke-linejoin="round"/>
<path d="M7.87354 8.77454H9.14123" stroke="white" stroke-width="0.5" stroke-miterlimit="10" stroke-linecap="round" stroke-linejoin="round"/>
<path d="M10.5986 9.33331V7.06242L12.134 9.28566C12.1624 9.32679 12.1929 9.30663 12.1929 9.25663L12.1717 7.05816" stroke="white" stroke-width="0.5" stroke-miterlimit="10" stroke-linecap="round" stroke-linejoin="round"/>
<path d="M13.6299 7.02973V9.33331" stroke="white" stroke-width="0.5" stroke-miterlimit="10" stroke-linecap="round" stroke-linejoin="round"/>
<path d="M14.869 7.05879L13.7036 8.13004L14.9508 9.33331" stroke="white" stroke-width="0.5" stroke-miterlimit="10" stroke-linecap="round" stroke-linejoin="round"/>
</svg>
