<svg width="18" height="18" viewBox="0 0 18 18" fill="none" xmlns="http://www.w3.org/2000/svg">
<path d="M15.4975 0.930359H4.6585C4.17188 0.930888 3.70532 1.12441 3.36119 1.46848C3.01706 1.81255 2.82346 2.27906 2.82284 2.76569V13.3984H2.50184C1.48984 13.3987 0.666504 14.222 0.666504 15.234C0.666504 16.246 1.48984 17.0694 2.50184 17.0694H12.4932C12.9798 17.0688 13.4464 16.8753 13.7905 16.5312C14.1346 16.1872 14.3282 15.7207 14.3288 15.234V4.94636H16.9998C17.0882 4.94636 17.173 4.91124 17.2355 4.84873C17.2981 4.78622 17.3332 4.70143 17.3332 4.61303V2.76569C17.3326 2.27906 17.1389 1.81255 16.7948 1.46848C16.4507 1.12441 15.9841 0.930888 15.4975 0.930359ZM11.0788 16.403H2.50184C1.85717 16.403 1.33317 15.8787 1.33317 15.234C1.33317 14.5894 1.85717 14.065 2.50184 14.065H11.0788C10.8158 14.3827 10.6575 14.7904 10.6575 15.234C10.6575 15.6777 10.8158 16.0854 11.0788 16.403ZM13.6622 2.76603V15.2344C13.6622 15.879 13.1378 16.403 12.4932 16.403C11.8485 16.403 11.3242 15.8787 11.3242 15.2344C11.3242 14.59 11.8485 14.0654 12.4932 14.0654C12.5816 14.0654 12.6664 14.0302 12.7289 13.9677C12.7914 13.9052 12.8265 13.8204 12.8265 13.732C12.8265 13.6436 12.7914 13.5588 12.7289 13.4963C12.6664 13.4338 12.5816 13.3987 12.4932 13.3987H3.4895V2.76603C3.48986 2.45613 3.61314 2.15903 3.83231 1.93993C4.05147 1.72083 4.34861 1.59762 4.6585 1.59736H14.0838C13.8109 1.92557 13.6616 2.33913 13.6622 2.76603ZM16.6665 4.27969H14.3288V2.76569C14.3288 2.12103 14.8528 1.59703 15.4975 1.59703C16.1422 1.59703 16.6665 2.12136 16.6665 2.76603V4.27969Z" fill="white"/>
<path d="M4.95101 9.83171H12.2C12.2884 9.83171 12.3732 9.79659 12.4357 9.73408C12.4982 9.67157 12.5333 9.58678 12.5333 9.49838C12.5333 9.40997 12.4982 9.32519 12.4357 9.26268C12.3732 9.20016 12.2884 9.16504 12.2 9.16504H4.95101C4.8626 9.16504 4.77782 9.20016 4.71531 9.26268C4.65279 9.32519 4.61768 9.40997 4.61768 9.49838C4.61768 9.58678 4.65279 9.67157 4.71531 9.73408C4.77782 9.79659 4.8626 9.83171 4.95101 9.83171ZM12.2003 11.4004H4.95101C4.8626 11.4004 4.77782 11.4355 4.71531 11.498C4.65279 11.5605 4.61768 11.6453 4.61768 11.7337C4.61768 11.8221 4.65279 11.9069 4.71531 11.9694C4.77782 12.0319 4.8626 12.067 4.95101 12.067H12.2C12.2884 12.0671 12.3732 12.032 12.4358 11.9695C12.4983 11.9071 12.5335 11.8223 12.5335 11.7339C12.5336 11.6455 12.4985 11.5607 12.436 11.4981C12.3735 11.4356 12.2887 11.4004 12.2003 11.4004ZM6.97034 7.62438C7.0057 7.65022 7.04581 7.66885 7.08838 7.67919C7.13094 7.68952 7.17512 7.69137 7.2184 7.68462C7.26168 7.67787 7.3032 7.66266 7.3406 7.63986C7.378 7.61705 7.41053 7.5871 7.43634 7.55171L10.2537 3.69338C10.2806 3.6581 10.3002 3.61782 10.3113 3.57487C10.3224 3.53193 10.3248 3.48721 10.3185 3.44331C10.3121 3.39941 10.297 3.35723 10.2741 3.31924C10.2512 3.28124 10.221 3.2482 10.1851 3.22205C10.1493 3.19589 10.1086 3.17715 10.0655 3.16692C10.0223 3.15669 9.97754 3.15518 9.93378 3.16248C9.89003 3.16977 9.84817 3.18573 9.81066 3.20941C9.77315 3.23309 9.74075 3.26401 9.71534 3.30038L6.89801 7.15871C6.87211 7.19401 6.85344 7.23407 6.84305 7.2766C6.83267 7.31914 6.83078 7.3633 6.8375 7.40656C6.84422 7.44982 6.85942 7.49133 6.88221 7.52871C6.90501 7.56609 6.93496 7.5986 6.97034 7.62438ZM7.22601 5.34204C7.78701 5.34204 8.24301 4.80071 8.24301 4.13538C8.24301 3.47004 7.78701 2.92871 7.22601 2.92871C6.66501 2.92871 6.20901 3.47004 6.20901 4.13538C6.20901 4.80071 6.66501 5.34204 7.22601 5.34204ZM7.22601 3.59538C7.39168 3.59538 7.57634 3.81738 7.57634 4.13538C7.57634 4.45338 7.39168 4.67538 7.22601 4.67538C7.06034 4.67538 6.87568 4.45338 6.87568 4.13538C6.87568 3.81738 7.06034 3.59538 7.22601 3.59538ZM8.90868 6.71671C8.90868 7.38204 9.36468 7.92338 9.92568 7.92338C10.4863 7.92338 10.9423 7.38204 10.9423 6.71671C10.9423 6.05138 10.4863 5.51004 9.92568 5.51004C9.36468 5.51004 8.90868 6.05138 8.90868 6.71671ZM10.2753 6.71671C10.2753 7.03504 10.0907 7.25671 9.92534 7.25671C9.75968 7.25671 9.57501 7.03471 9.57501 6.71671C9.57501 6.39871 9.75968 6.17671 9.92534 6.17671C10.0907 6.17671 10.2753 6.39871 10.2753 6.71671Z" fill="white"/>
</svg>
