<svg width="20" height="20" viewBox="0 0 20 20" fill="none" xmlns="http://www.w3.org/2000/svg">
<path fill-rule="evenodd" clip-rule="evenodd" d="M15.0928 11.2231C15.0485 11.1602 15.0308 11.0825 15.0434 11.0066C15.0561 10.9307 15.0981 10.8629 15.1604 10.8178C15.2226 10.7726 15.3002 10.7538 15.3762 10.7655C15.4522 10.7771 15.5206 10.8181 15.5666 10.8798L16.0922 11.6036L17.307 10.2985C17.3598 10.2418 17.433 10.2083 17.5104 10.2055C17.5879 10.2027 17.6633 10.2308 17.7201 10.2836C17.7768 10.3364 17.8103 10.4096 17.8131 10.4871C17.8159 10.5646 17.7878 10.64 17.735 10.6968L16.2868 12.2527C16.1617 12.3929 15.9412 12.3916 15.8272 12.2345L15.0928 11.2231ZM0.332031 11.7294V16.3975C0.332035 16.4583 0.350985 16.5177 0.38625 16.5673C0.421516 16.6169 0.471347 16.6543 0.528828 16.6743L4.44129 18.3883C4.5109 18.4182 4.58668 18.421 4.65785 18.395L5.17441 18.1694C5.51746 19.0589 6.37863 19.6679 7.35059 19.6679H17.337C18.6196 19.6679 19.668 18.6196 19.668 17.3369V5.21059C19.668 5.13047 19.6362 5.05707 19.5805 5.0018L14.9976 0.418867C14.9704 0.391318 14.938 0.369454 14.9022 0.354546C14.8665 0.339638 14.8282 0.331985 14.7895 0.332031H7.35059C6.06789 0.332031 5.01957 1.38039 5.01957 2.66305V9.88957L4.67477 9.73852V9.73855C4.63796 9.72246 4.59822 9.71415 4.55805 9.71414C4.51788 9.71413 4.47814 9.72243 4.44133 9.73852L0.528867 11.4526C0.471382 11.4726 0.421545 11.51 0.386274 11.5596C0.351002 11.6092 0.332044 11.6685 0.332031 11.7294ZM0.917969 12.1766L4.26504 13.643V17.6732L0.917969 16.2069V12.1766ZM4.85098 13.643L8.19809 12.1767V16.2069L4.85098 17.6733V13.643ZM6.93797 9.75316C6.89865 9.81931 6.83484 9.86729 6.76037 9.88669C6.6859 9.90608 6.60679 9.89533 6.5402 9.85676C6.47361 9.8182 6.42492 9.75493 6.40468 9.68069C6.38444 9.60645 6.3943 9.52722 6.43211 9.4602L8.00004 6.74449C8.02571 6.70014 8.06259 6.66332 8.10699 6.63773C8.15138 6.61213 8.20173 6.59866 8.25297 6.59867V6.59801H10.6544C10.8698 5.96695 11.6778 5.77309 12.1543 6.24965C12.7244 6.81969 12.3183 7.79797 11.513 7.79797C11.1197 7.79797 10.7779 7.54602 10.6544 7.18395H8.42129L6.93797 9.75316ZM11.7401 6.66395C11.8003 6.72417 11.8341 6.80584 11.8341 6.891C11.8341 6.97615 11.8003 7.05782 11.7401 7.11805C11.5384 7.31969 11.192 7.17633 11.192 6.89102C11.192 6.60566 11.5384 6.4623 11.7401 6.66395ZM9.18937 11.5732C9.11168 11.5732 9.03716 11.5423 8.98221 11.4874C8.92727 11.4325 8.89641 11.3579 8.89641 11.2802C8.89641 11.2025 8.92727 11.128 8.98221 11.0731C9.03716 11.0181 9.11168 10.9873 9.18937 10.9873H14.1979C14.2756 10.9873 14.3501 11.0181 14.4051 11.0731C14.46 11.128 14.4909 11.2025 14.4909 11.2802C14.4909 11.3579 14.46 11.4325 14.4051 11.4874C14.3501 11.5423 14.2756 11.5732 14.1979 11.5732H9.18937ZM9.18937 16.5818C9.11168 16.5818 9.03716 16.5509 8.98221 16.4959C8.92727 16.441 8.89641 16.3665 8.89641 16.2888C8.89641 16.2111 8.92727 16.1366 8.98221 16.0816C9.03716 16.0267 9.11168 15.9958 9.18937 15.9958H14.1979C14.2756 15.9958 14.3501 16.0267 14.4051 16.0816C14.46 16.1366 14.4909 16.2111 14.4909 16.2888C14.4909 16.3665 14.46 16.441 14.4051 16.4959C14.3501 16.5509 14.2756 16.5818 14.1979 16.5818H9.18937ZM15.0928 13.7274C15.0485 13.6645 15.0308 13.5867 15.0434 13.5109C15.0561 13.435 15.0981 13.3672 15.1604 13.3221C15.2226 13.2769 15.3002 13.2581 15.3762 13.2697C15.4522 13.2814 15.5206 13.3224 15.5666 13.3841L16.0922 14.1079L17.307 12.8028C17.3598 12.7461 17.433 12.7126 17.5104 12.7098C17.5879 12.707 17.6633 12.7351 17.7201 12.7879C17.7768 12.8407 17.8103 12.9139 17.8131 12.9914C17.8159 13.0689 17.7878 13.1443 17.735 13.2011L16.2868 14.757C16.1616 14.8972 15.9412 14.8959 15.8272 14.7388L15.0928 13.7274ZM15.0928 16.2317C15.0485 16.1688 15.0308 16.091 15.0434 16.0152C15.0561 15.9393 15.0981 15.8715 15.1604 15.8264C15.2226 15.7812 15.3002 15.7624 15.3762 15.774C15.4522 15.7857 15.5206 15.8267 15.5666 15.8884L16.0922 16.6122L17.307 15.3071C17.3598 15.2504 17.433 15.2169 17.5104 15.2141C17.5488 15.2127 17.5871 15.2189 17.623 15.2323C17.659 15.2457 17.692 15.2661 17.7201 15.2922C17.7482 15.3184 17.7709 15.3498 17.7868 15.3847C17.8028 15.4196 17.8117 15.4573 17.8131 15.4957C17.8145 15.5341 17.8083 15.5723 17.7949 15.6083C17.7815 15.6443 17.7611 15.6772 17.735 15.7054L16.2868 17.2612C16.1616 17.4015 15.9412 17.4002 15.8272 17.243L15.0928 16.2317ZM7.31914 2.33867H13.002C13.0797 2.33867 13.1542 2.36954 13.2091 2.42448C13.2641 2.47942 13.2949 2.55394 13.2949 2.63164V4.50984C13.2949 4.58754 13.2641 4.66206 13.2091 4.717C13.1542 4.77195 13.0797 4.80281 13.002 4.80281H7.31914C7.24144 4.80281 7.16692 4.77195 7.11198 4.717C7.05704 4.66206 7.02617 4.58754 7.02617 4.50984V2.63164C7.02617 2.55394 7.05704 2.47942 7.11198 2.42448C7.16692 2.36954 7.24144 2.33867 7.31914 2.33867ZM12.709 2.92461V4.21688H7.61211V2.92461H12.709ZM19.082 5.50355H14.7894C14.7117 5.50355 14.6372 5.47269 14.5823 5.41775C14.5273 5.3628 14.4964 5.28829 14.4964 5.21059V0.917969H7.35059C6.39141 0.917969 5.60551 1.70383 5.60551 2.66309V10.1463L8.58719 11.4526C8.64469 11.4726 8.69455 11.5099 8.72983 11.5596C8.76511 11.6092 8.78407 11.6685 8.78406 11.7294V16.3975C8.78406 16.4584 8.76511 16.5177 8.72984 16.5673C8.69458 16.6169 8.64475 16.6543 8.58727 16.6743L5.71117 17.9343C5.96051 18.6138 6.61117 19.0821 7.35063 19.0821H17.337C18.2962 19.0821 19.0821 18.2962 19.0821 17.337V5.50355H19.082ZM15.0823 1.33223L18.6677 4.91762H15.0823V1.33223ZM13.1143 7.60004C13.0366 7.60004 12.9621 7.56917 12.9072 7.51423C12.8522 7.45929 12.8214 7.38477 12.8214 7.30707C12.8214 7.22937 12.8522 7.15485 12.9072 7.09991C12.9621 7.04497 13.0366 7.0141 13.1143 7.0141H17.7617C17.8394 7.0141 17.9139 7.04497 17.9689 7.09991C18.0238 7.15485 18.0547 7.22937 18.0547 7.30707C18.0547 7.38477 18.0238 7.45929 17.9689 7.51423C17.9139 7.56917 17.8394 7.60004 17.7617 7.60004H13.1143ZM13.1143 9.30969C13.0366 9.30969 12.9621 9.27882 12.9072 9.22388C12.8522 9.16894 12.8214 9.09442 12.8214 9.01672C12.8214 8.93902 12.8522 8.8645 12.9072 8.80956C12.9621 8.75462 13.0366 8.72375 13.1143 8.72375H17.7617C17.8394 8.72375 17.9139 8.75462 17.9689 8.80956C18.0238 8.8645 18.0547 8.93902 18.0547 9.01672C18.0547 9.09442 18.0238 9.16894 17.9689 9.22388C17.9139 9.27882 17.8394 9.30969 17.7617 9.30969H13.1143ZM7.76309 11.7294L4.55805 13.1335L1.35301 11.7294L4.55805 10.3252L7.76309 11.7294ZM9.18937 14.0775C9.11168 14.0775 9.03716 14.0466 8.98221 13.9917C8.92727 13.9367 8.89641 13.8622 8.89641 13.7845C8.89641 13.7068 8.92727 13.6323 8.98221 13.5774C9.03716 13.5224 9.11168 13.4916 9.18937 13.4916H14.1979C14.2756 13.4916 14.3501 13.5224 14.4051 13.5774C14.46 13.6323 14.4909 13.7068 14.4909 13.7845C14.4909 13.8622 14.46 13.9367 14.4051 13.9917C14.3501 14.0466 14.2756 14.0775 14.1979 14.0775H9.18937Z" fill="white"/>
</svg>
